name C:/MyDriveSym/Projects/mobilecap/Data\Session20210903_0001\mocap\ForceDataProcessed\DJ2_forces.mot
datacolumns 28
datarows 15
range 1.89700000 1.90400000
endheader 
time	R_ground_force_vx	R_ground_force_vy	R_ground_force_vz	R_ground_force_px	R_ground_force_py	R_ground_force_pz	R_ground_torque_x	R_ground_torque_y	R_ground_torque_z	L_ground_force_vx	L_ground_force_vy	L_ground_force_vz	L_ground_force_px	L_ground_force_py	L_ground_force_pz	L_ground_torque_x	L_ground_torque_y	L_ground_torque_z	3_ground_force_vx	3_ground_force_vy	3_ground_force_vz	3_ground_force_px	3_ground_force_py	3_ground_force_pz	3_ground_torque_x	3_ground_torque_y	3_ground_torque_z	
          1.89700000	        -86.27369900	        448.51647900	        -23.71437800	         -0.10203200	          0.00600000	         -0.45958200	          0.00000000	         -1.95229800	          0.00000000	        -76.67972600	        372.09382700	         22.21458800	         -0.13763300	          0.00600000	         -0.74934900	          0.00000000	          0.81291600	          0.00000000	          0.00000000	          0.00000000	          0.00000000	          0.00000000	          0.00000000	          0.00000000	          0.00000000	          0.00000000	          0.00000000	
          1.89750000	        -86.10640100	        446.62029000	        -23.80225100	         -0.10195600	          0.00600000	         -0.45947800	          0.00000000	         -1.90426200	          0.00000000	        -75.95174100	        369.20214100	         22.24928500	         -0.13750500	          0.00600000	         -0.74942700	          0.00000000	          0.79186700	          0.00000000	          0.00000000	          0.00000000	          0.00000000	          0.00000000	          0.00000000	          0.00000000	          0.00000000	          0.00000000	          0.00000000	
          1.89800000	        -85.91023600	        444.65798100	        -23.88573900	         -0.10187900	          0.00600000	         -0.45937500	          0.00000000	         -1.85593200	          0.00000000	        -75.18172800	        366.23209000	         22.27846100	         -0.13737600	          0.00600000	         -0.74950600	          0.00000000	          0.77112200	          0.00000000	          0.00000000	          0.00000000	          0.00000000	          0.00000000	          0.00000000	          0.00000000	          0.00000000	          0.00000000	          0.00000000	
          1.89850000	        -85.68472200	        442.62895900	        -23.96453900	         -0.10180100	          0.00600000	         -0.45927000	          0.00000000	         -1.80737000	          0.00000000	        -74.36937200	        363.18284900	         22.30177700	         -0.13724600	          0.00600000	         -0.74958600	          0.00000000	          0.75072600	          0.00000000	          0.00000000	          0.00000000	          0.00000000	          0.00000000	          0.00000000	          0.00000000	          0.00000000	          0.00000000	          0.00000000	
          1.89900000	        -85.42940300	        440.53270700	        -24.03835400	         -0.10172200	          0.00600000	         -0.45916500	          0.00000000	         -1.75863900	          0.00000000	        -73.51443700	        360.05363900	         22.31889000	         -0.13711400	          0.00600000	         -0.74966700	          0.00000000	          0.73072600	          0.00000000	          0.00000000	          0.00000000	          0.00000000	          0.00000000	          0.00000000	          0.00000000	          0.00000000	          0.00000000	          0.00000000	
          1.89950000	        -85.14385300	        438.36878800	        -24.10688300	         -0.10164300	          0.00600000	         -0.45905900	          0.00000000	         -1.70980400	          0.00000000	        -72.61677000	        356.84371300	         22.32945600	         -0.13698100	          0.00600000	         -0.74975000	          0.00000000	          0.71116800	          0.00000000	          0.00000000	          0.00000000	          0.00000000	          0.00000000	          0.00000000	          0.00000000	          0.00000000	          0.00000000	          0.00000000	
          1.90000000	        -84.82766000	        436.13683100	        -24.16982900	         -0.10156200	          0.00600000	         -0.45895100	          0.00000000	         -1.66093500	          0.00000000	        -71.67629900	        353.55233500	         22.33313300	         -0.13684600	          0.00600000	         -0.74983400	          0.00000000	          0.69209900	          0.00000000	          0.00000000	          0.00000000	          0.00000000	          0.00000000	          0.00000000	          0.00000000	          0.00000000	          0.00000000	          0.00000000	
          1.90050000	        -84.48042700	        433.83651300	        -24.22689400	         -0.10148100	          0.00600000	         -0.45884200	          0.00000000	         -1.61210300	          0.00000000	        -70.69302900	        350.17874100	         22.32956400	         -0.13671100	          0.00600000	         -0.74991900	          0.00000000	          0.67356100	          0.00000000	          0.00000000	          0.00000000	          0.00000000	          0.00000000	          0.00000000	          0.00000000	          0.00000000	          0.00000000	          0.00000000	
          1.90100000	        -84.10176100	        431.46752000	        -24.27776900	         -0.10140000	          0.00600000	         -0.45873200	          0.00000000	         -1.56338400	          0.00000000	        -69.66705400	        346.72213700	         22.31837200	         -0.13657400	          0.00600000	         -0.75000600	          0.00000000	          0.65559400	          0.00000000	          0.00000000	          0.00000000	          0.00000000	          0.00000000	          0.00000000	          0.00000000	          0.00000000	          0.00000000	          0.00000000	
          1.90150000	        -83.69128200	        429.02950800	        -24.32212900	         -0.10131700	          0.00600000	         -0.45862000	          0.00000000	         -1.51485200	          0.00000000	        -68.59855800	        343.18171600	         22.29914600	         -0.13643600	          0.00600000	         -0.75009300	          0.00000000	          0.63824600	          0.00000000	          0.00000000	          0.00000000	          0.00000000	          0.00000000	          0.00000000	          0.00000000	          0.00000000	          0.00000000	          0.00000000	
          1.90200000	        -83.24862200	        426.52209400	        -24.35962900	         -0.10123400	          0.00600000	         -0.45850600	          0.00000000	         -1.46658000	          0.00000000	        -67.48782600	        339.55668000	         22.27145200	         -0.13629700	          0.00600000	         -0.75018100	          0.00000000	          0.62157800	          0.00000000	          0.00000000	          0.00000000	          0.00000000	          0.00000000	          0.00000000	          0.00000000	          0.00000000	          0.00000000	          0.00000000	
          1.90250000	        -82.77341800	        423.94486800	        -24.38992000	         -0.10114900	          0.00600000	         -0.45838900	          0.00000000	         -1.41863700	          0.00000000	        -66.33523800	        335.84625000	         22.23483700	         -0.13615600	          0.00600000	         -0.75027000	          0.00000000	          0.60566100	          0.00000000	          0.00000000	          0.00000000	          0.00000000	          0.00000000	          0.00000000	          0.00000000	          0.00000000	          0.00000000	          0.00000000	
          1.90300000	        -82.26531200	        421.29744000	        -24.41265300	         -0.10106400	          0.00600000	         -0.45827100	          0.00000000	         -1.37109400	          0.00000000	        -65.14126600	        332.04967100	         22.18883900	         -0.13601400	          0.00600000	         -0.75036000	          0.00000000	          0.59058000	          0.00000000	          0.00000000	          0.00000000	          0.00000000	          0.00000000	          0.00000000	          0.00000000	          0.00000000	          0.00000000	          0.00000000	
          1.90350000	        -81.72393300	        418.57947500	        -24.42749100	         -0.10097800	          0.00600000	         -0.45815000	          0.00000000	         -1.32401800	          0.00000000	        -63.90647200	        328.16620600	         22.13299500	         -0.13587000	          0.00600000	         -0.75044900	          0.00000000	          0.57642100	          0.00000000	          0.00000000	          0.00000000	          0.00000000	          0.00000000	          0.00000000	          0.00000000	          0.00000000	          0.00000000	          0.00000000	
          1.90400000	        -81.14890100	        415.79071600	        -24.43410900	         -0.10089100	          0.00600000	         -0.45802700	          0.00000000	         -1.27748300	          0.00000000	        -62.63151800	        324.19515900	         22.06685300	         -0.13572400	          0.00600000	         -0.75054000	          0.00000000	          0.56327100	          0.00000000	          0.00000000	          0.00000000	          0.00000000	          0.00000000	          0.00000000	          0.00000000	          0.00000000	          0.00000000	          0.00000000	
